{"title":"Rango.2011.THEATRiCAL.DVDRip.XviD-EXViD","uid":6491206,"size":1480368653,"categoryP":"video","categoryS":"movies","magnet":"?xt=urn:btih:a6dbc75ec6d7019e0a66ab7f675995918f1226c7&amp;dn=Rango.2011.THEATRiCAL.DVDRip.XviD-EXViD&amp;tr=udp%3A%2F%2Ftracker.openbittorrent.com%3A80&amp;tr=udp%3A%2F%2Fopen.demonii.com%3A1337&amp;tr=udp%3A%2F%2Ftracker.coppersurfer.tk%3A6969&amp;tr=udp%3A%2F%2Fexodus.desync.com%3A6969","seeders":0,"leechers":1,"uploader":"TvTeam","files":9,"time":1308895235,"description":". \n  &lt;a href=&quot;\nhttp://www.torrenting.com/&quot; rel=&quot;nofollow&quot; target=&quot;_NEW&quot;&gt;\nhttp://www.torrenting.com/&lt;/a&gt;        :     Greatest Movie Tracker on The Net!!!\n &lt;a href=&quot;\nhttp://www.Torrenting.com&quot; rel=&quot;nofollow&quot; target=&quot;_NEW&quot;&gt;\nhttp://www.Torrenting.com&lt;/a&gt;          :     Once &amp; For all ;)\n\n\n               www . Torrenting . Com \n\n(((((((((((((= Enjoy No RAR releases =))))))))))))))))))))\n\n\n...................................NFO:....................................\n\n.                                                                                                     \n       \n     \n     \n       \n       \n     \n     \n                                         \n                                         \n                EXVID                    \n                                         \n         \n                                         \n         Filled the Archives             \n                                         \n         \n                                         \n                With:                    \n                                         \n         \n                                         \n                                    \n     E240                           \n                                    \n     SP               (C) 2009      \n                                         \n     \n     \n     \n                                                                                  \n                                                                                   \n                 Rango.2011.THEATRiCAL.DVDRip.XviD-EXViD                            \n                                                                                   \n                                                                                  \n     \n                                                                                               \nEXViD aims to iNTERNAL those releases which have been lost in the archives.\nEXViD aims to PRE non-internal releases which have poor sources and are likely skipped by others.\n &lt;a href=&quot;\nhttp://www.imdb.com/title/tt1192628/&quot; rel=&quot;nofollow&quot; target=&quot;_NEW&quot;&gt;\nhttp://www.imdb.com/title/tt1192628/&lt;/a&gt;\nSubtitles: EN, FR, NL, FL (Flemish)\nDate: 2011.06\n\nDirector: Gore Verbinski\n\nGenres: Animation | Adventure | Comedy | Family | Western\n\nPlot:\nRango is an ordinary chameleon who accidentally winds up in the town of Dirt, a lawless outpost\nin the Wild West in desperate need of a new sheriff.\n\nCast:\nJohnny Depp \t ... \tRango / Lars (voice) \nIsla Fisher \t ... \tBeans (voice) \nAbigail Breslin \t ... \tPriscilla (voice) \nNed Beatty \t ... \tMayor (voice) \nAlfred Molina \t ... \tRoadkill (voice) \nBill Nighy \t ... \tRattlesnake Jake (voice) \nStephen Root \t ... \t Doc / Merrimack / Mr. Snuggles (voice) \nHarry Dean Stanton \t ... \t Balthazar (voice) \nTimothy Olyphant \t ... \tSpirit of the West (voice) \nRay Winstone \t ... \tBad Bill (voice) \nIan Abercrombie \t ... \t Ambrose (voice) \nGil Birmingham \t ... \t Wounded Bird (voice) \nJames Ward Byrkit \t ... \t Waffles / GordyPapa / Joad / Cousin Murt / Curlie Knife Attacker / Rodent Kid (voice) \nClaudia Black \t ... \t Angelique (voice) \nBlake Clark \t ... \t Buford (voice)\n\nStats:\nFormat                           : AVI\nFormat/Info                      : Audio Video Interleave\nFile size                        : 1.37 GiB\nDuration                         : 1h 42mn\nOverall bit rate                 : 1 902 Kbps\nWriting application              : VirtualDubMod 1.5.10.2 (build 2540/release)\nWriting library                  : VirtualDubMod build 2540/release\n\nVideo\nID                               : 0\nFormat                           : MPEG-4 Visual\nFormat profile                   : Advanced Simple@L5\nFormat settings, BVOP            : Yes\nFormat settings, QPel            : No\nFormat settings, GMC             : No warppoints\nFormat settings, Matrix          : Default (H.263)\nMuxing mode                      : Packed bitstream\nCodec ID                         : XVID\nCodec ID/Hint                    : XviD\nDuration                         : 1h 42mn\nBit rate                         : 1 444 Kbps\nWidth                            : 640 pixels\nHeight                           : 272 pixels\nDisplay aspect ratio             : 2.35:1\nFrame rate                       : 25.000 fps\nColor space                      : YUV\nChroma subsampling               : 4:2:0\nBit depth                        : 8 bits\nScan type                        : Progressive\nBits/(Pixel*Frame)               : 0.332\nStream size                      : 1.04 GiB (76%)\nWriting library                  : XviD 62\n\nAudio\nID                               : 1\nFormat                           : AC-3\nFormat/Info                      : Audio Coding 3\nMode extension                   : CM (complete main)\nCodec ID                         : 2000\nDuration                         : 1h 42mn\nBit rate mode                    : Constant\nBit rate                         : 448 Kbps\nChannel(s)                       : 6 channels\nChannel positions                : Front: L C R, Side: L R, LFE\nSampling rate                    : 48.0 KHz\nBit depth                        : 16 bits\nStream size                      : 330 MiB (24%)\nAlignment                        : Split accross interleaves\nInterleave, duration             : 40 ms (1.00 video frame)\nInterleave, preload duration     : 500 ms\n\n\n\n\nRelease notes:\nenjoy!\n\nLooking for:\n75TB+ Archives\nDUTCH/FLEMiSH Archives\n                                                                                                    \nGreets: CRBS EPiSODE FiCO FLS iLS KLASSiGER LiPSYNC MADE NODLABS RUNNER SPRiNTER      \n   \n\n                                                                    ASCII DONE BY XX^NFO 2oo9","torrent":{"xt":"urn:btih:a6dbc75ec6d7019e0a66ab7f675995918f1226c7","amp;dn":"Rango.2011.THEATRiCAL.DVDRip.XviD-EXViD","amp;tr":["udp%3A%2F%2Ftracker.openbittorrent.com%3A80","udp%3A%2F%2Fopen.demonii.com%3A1337","udp%3A%2F%2Ftracker.coppersurfer.tk%3A6969","udp%3A%2F%2Fexodus.desync.com%3A6969"],"infoHash":"a6dbc75ec6d7019e0a66ab7f675995918f1226c7","infoHashBuffer":{"type":"Buffer","data":[166,219,199,94,198,215,1,158,10,102,171,127,103,89,149,145,143,18,38,199]},"announce":[],"urlList":[]}}